<svg xmlns="http://www.w3.org/2000/svg" width="72px" height="68px" viewBox="0 0 72 68" version="1.1">
    <!-- Generator: Sketch 46.2 (44496) - http://www.bohemiancoding.com/sketch -->
    <g id="画板空白页" stroke="none" stroke-width="1" fill="none" fill-rule="evenodd">
        <g id="画板仓库--卡片为空" transform="translate(-344.000000, -321.000000)">
            <g id="Group-38" transform="translate(344.000000, 321.000000)">
                <path d="M7.2,45.8897898 L7.2,11.3588589 L7.2,11.3588589 C7.2,10.3551269 8.00588745,9.54144144 9,9.54144144 L9,9.54144144 L63,9.54144144 L63,9.54144144 C63.9941125,9.54144144 64.8,10.3551269 64.8,11.3588589 L64.8,45.8897898"
                      id="Rectangle-11" stroke="#E8E8E8" stroke-width="2.25" fill="#FFFFFF"/>
                <path d="M27,4.08918919 L45,4.08918919 L45,4.08918919 C45.4970563,4.08918919 45.9,4.49213291 45.9,4.98918919 L45.9,7.26966967 L26.1,7.26966967 L26.1,4.98918919 L26.1,4.98918919 C26.1,4.49213291 26.5029437,4.08918919 27,4.08918919 Z"
                      id="Rectangle-14" fill="#E8E8E8"/>
                <path d="M33.75,0 L38.25,0 L38.25,0 C38.7470563,-9.13077564e-17 39.15,0.402943725 39.15,0.9 L39.15,3.18048048 L32.85,3.18048048 L32.85,0.9 L32.85,0.9 C32.85,0.402943725 33.2529437,-1.97145461e-17 33.75,-1.11022302e-16 Z"
                      id="Rectangle-14-Copy" fill="#E8E8E8"/>
                <rect id="Rectangle-15" fill="#E8E8E8" x="0" y="47.2528529" width="72" height="5.45225225" rx="1.35"/>
                <g id="Group-34" transform="translate(12.600000, 54.522523)" fill="#E8E8E8">
                    <path d="M6.1281002,0 L13.5,0 L7.20976864,12.4721039 L7.20976864,12.4721039 C7.13250641,12.6252974 6.97555656,12.7219219 6.80398236,12.7219219 L0.450089076,12.7219219 L0.450089076,12.7219219 C0.199090065,12.7219219 -0.00438483607,12.518447 -0.00438483607,12.267448 C-0.00438483607,12.1963604 0.0122910794,12.1262641 0.0443027994,12.0627921 L6.1281002,0 Z"
                          id="Rectangle-12"/>
                    <path d="M39.4281002,0 L46.8,0 L40.5097686,12.4721039 L40.5097686,12.4721039 C40.4325064,12.6252974 40.2755566,12.7219219 40.1039824,12.7219219 L33.7500891,12.7219219 L33.7500891,12.7219219 C33.4990901,12.7219219 33.2956152,12.518447 33.2956152,12.267448 C33.2956152,12.1963604 33.3122911,12.1262641 33.3443028,12.0627921 L39.4281002,0 Z"
                          id="Rectangle-12"
                          transform="translate(40.050000, 6.360961) scale(-1, 1) translate(-40.050000, -6.360961) "/>
                </g>
            </g>
        </g>
    </g>
</svg>