<svg xmlns="http://www.w3.org/2000/svg" viewBox="0 0 64 64" id="books-icon-aixin">
    <g fill="currentColor">
        <path d="M38.629 12.32c5.629 0 10.255 5.232 10.783 11.923l.073.005a7.123 7.123 0 00-.61-.026l-.278.006c-2.489.097-4.744 1.504-6.244 3.732l-.2.31-.029-.049c-1.55-2.464-3.997-3.999-6.692-3.999-4.563 0-8.246 4.36-8.382 9.768l-.004.295c-.39 3.756 1.734 7.632 5.634 11.456a39.48 39.48 0 002.262 2.047 77.226 77.226 0 01-5.514 3.677c-.357.208-.76.134-1.046-.11l.065.039C23.424 48.36 7.015 36.7 8.147 25.522l.004-.33c.144-7.14 4.938-12.873 10.83-12.873 4.35 0 8.1 3.124 9.824 7.63 1.724-4.506 5.474-7.63 9.824-7.63zm10.246 14.064c.19 0 .377.01.563.03l-.002.031h.181c.776 7.66-6.631 15.144-12.988 20.074-4.816-3.847-7.998-8.12-7.59-12.1l.01-.385c.108-4.275 2.959-7.65 6.383-7.65 2.495 0 4.75 1.8 5.795 4.587l.927 2.471.927-2.47c1.045-2.788 3.3-4.588 5.794-4.588z"></path>
        <path d="M48.871 26.444c3.499 0 6.386 3.518 6.386 7.916l.006.12.022.261c.332 5.242-5.455 10.963-12.927 15.535l-.21.126.167.102c-7.777-4.685-13.835-10.625-13.28-16.025l.01-.384c.107-4.276 2.959-7.65 6.383-7.65 2.495 0 4.75 1.8 5.795 4.587l.927 2.47.926-2.47c1.045-2.787 3.3-4.588 5.795-4.588z"></path>
    </g>
</svg>