<svg xmlns="http://www.w3.org/2000/svg" viewBox="0 0 64 64" id="books-icon-duihua">
    <path d="M51.048 8C55.052 8 56 9.935 56 13.705v29.883c0 3.77-2.144 5.475-6.148 5.475l-15.756-.001L35.915 56l-.02-.004c-.397-.074-6.394-1.277-9.812-6.933H13.347c-4.003 0-5.295-1.238-5.295-5.009L8 13.241C8 9.47 9.955 8 13.958 8h37.09zM20.04 25a3.998 3.998 0 00-3.996 4c0 2.21 1.79 4 3.996 4a3.998 3.998 0 003.996-4 4 4 0 00-3.996-4zm11.987 0a3.998 3.998 0 00-3.996 4c0 2.21 1.79 4 3.996 4a3.998 3.998 0 003.996-4 4 4 0 00-3.996-4zm11.987 0a3.998 3.998 0 00-3.996 4c0 2.21 1.79 4 3.996 4a3.998 3.998 0 003.996-4 4 4 0 00-3.996-4z"
          fill="currentColor" fill-rule="evenodd"></path>
</svg>