<svg xmlns="http://www.w3.org/2000/svg" viewBox="0 0 64 64" id="books-icon-biaoge">
    <path d="M28 28V9.875C28 8.839 28.84 8 29.875 8h4.25C35.161 8 36 8.84 36 9.875V28h5V13.875c0-1.036.84-1.875 1.875-1.875h4.25c1.036 0 1.875.84 1.875 1.875V28h5.125c1.036 0 1.875.84 1.875 1.875v24.25C56 55.161 55.16 56 54.125 56H9.875A1.875 1.875 0 018 54.125v-24.25C8 28.839 8.84 28 9.875 28H15V13.875c0-1.036.84-1.875 1.875-1.875h4.25c1.036 0 1.875.84 1.875 1.875V28h5v13.058c0 .987.761 1.795 1.728 1.87l.147.005h4.127c.986 0 1.795-.761 1.87-1.728l.005-.147V28H28zM15 41.058c0 .987.761 1.795 1.728 1.87l.147.005h4.127c.986 0 1.795-.761 1.87-1.728l.005-.147V28H15v13.058zM48.876 28H41v13.05c0 .986.761 1.794 1.728 1.869l.147.005h4.127c.986 0 1.795-.761 1.87-1.728l.005-.147L48.876 28z"
          fill="currentColor"></path>
</svg>