<svg xmlns="http://www.w3.org/2000/svg" viewBox="0 0 256 256" id="book-icon-alibaba">
    <g fill="none" fill-rule="evenodd">
        <g fill-rule="nonzero">
            <path d="M161.584 103.278c.623 1.343.802 2.864.623 4.476.178-1.79 0-3.312-.623-4.476z" fill="#000"></path>
            <path d="M227.134 50.219c0-12.271-9.898-22.219-22.108-22.219H50.272c-12.21 0-22.108 9.948-22.108 22.219V205.75c0 12.271 9.898 22.219 22.108 22.219h154.754c12.21 0 22.108-9.948 22.108-22.22V50.22zm-97.536 106.605c.089-2.777 1.247-5.82 3.563-9.133 2.05-3.224 4.99-6.448 7.93-9.94 4.544-5.283 15.77-17.55 19.602-25.16.713-1.433 1.158-2.777 1.336-3.94.446-6.806-8.197-9.492-21.027-13.074l-2.495 1.522 4.811 3.94c-21.65 3.85-34.659 7.88-50.43 13.431l2.228 5.642-7.93 7.79c1.337.268 15.147 4.925 29.402-5.104l.09-.089.178-.18c-.446-.716-1.336-1.48-2.584-2.465 4.277.268 6.861 2.366 6.416 7.92h-1.872c.09 0-.145-2.637-.501-3.623-11.048 8.238-23.828 9.271-34.805 5.421v9.671c-5.718 1.88-14.823 7.79-14.823 13.431.357 2.776 1.633 3.76 2.969 4.478 12.117 6.894 44.875-2.507 44.785-2.507-11.76 6.088-23.448 10.923-40.733 11.64-22.898-.449-26.203-15.76-15.6-31.699 10.246-16.118 26.37-30.445 52.119-39.577 7.485-2.687 18.442-5.642 29.044-5.91 15.236 0 30.025 4.566 29.045 19.341-.713 11.372-16.573 26.951-25.126 38.414-3.742 4.924-4.366 8.327 1.96 7.88 22.364-1.434 42.946-9.224 61.923-17.372-13.008 8.686-79.03 41.727-79.476 19.252z"
                  fill="#FF6A00"></path>
        </g>
    </g>
</svg>