<svg xmlns="http://www.w3.org/2000/svg" viewBox="0 0 24 24" id="book-type-reports">
    <g fill="none" fill-rule="evenodd">
        <path d="M1.688 18.656v-12a1.5 1.5 0 011.5-1.5h17.625a1.5 1.5 0 011.5 1.5v12a1.5 1.5 0 01-1.5 1.5H3.188a1.5 1.5 0 01-1.5-1.5z"
              fill="#DBEDDF"></path>
        <path d="M1.688 8.156V6.281a1.5 1.5 0 011.5-1.5h17.625a1.5 1.5 0 011.5 1.5v1.875H1.688z" fill="#4BA361"></path>
        <path d="M7.313 3.844h1.875a1.031 1.031 0 110 2.062H7.312a1.031 1.031 0 110-2.062z" fill="#DBEDDF"
              transform="rotate(90 8.25 4.875)"></path>
        <path d="M14.813 3.844h1.874a1.031 1.031 0 010 2.062h-1.875a1.031 1.031 0 010-2.062z" fill="#DBEDDF"
              transform="rotate(90 15.75 4.875)"></path>
        <path d="M7.313 11.531a1.125 1.125 0 11-2.25 0 1.125 1.125 0 012.25 0M13.125 11.531a1.125 1.125 0 11-2.25 0 1.125 1.125 0 012.25 0M18.938 11.531a1.125 1.125 0 11-2.25 0 1.125 1.125 0 012.25 0M7.313 16.031a1.125 1.125 0 11-2.25 0 1.125 1.125 0 012.25 0M13.125 16.031a1.125 1.125 0 11-2.25 0 1.125 1.125 0 012.25 0M18.938 16.031a1.125 1.125 0 11-2.25 0 1.125 1.125 0 012.25 0"
              fill="#4BA361"></path>
    </g>
</svg>