<svg xmlns="http://www.w3.org/2000/svg" viewBox="0 0 256 256"
     id="book-icon-yuque">
    <g fill="none" fill-rule="evenodd">
        <g>
            <g transform="translate(28 28)">
                <rect fill="#25B864" width="200" height="200" rx="16.667"></rect>
                <g opacity=".9" transform="translate(33.333 41.667)">
                    <path fill="#FFF"
                          d="M125.948 15.952l-10.241-.544S111.833 1.898 94.057.687C76.281-.525 64.65.236 64.65.236s13.186 8.345 7.902 23.236c-3.927 8.031-10.139 14.594-16.762 22.135L11.995 95.294c40.768-.595 64.803-.892 72.106-.892 20.48 0 37.787-17.655 37.079-37.3-.487-13.5-4.81-16.55-6.297-22.464-1.486-5.912 1.489-15.342 11.065-18.686z"
                          id="book-icon-yuque_c"></path>
                    <path fill-opacity=".4"
                          d="M125.948 15.952l-10.241-.544S111.833 1.898 94.057.687C76.281-.525 64.65.236 64.65.236s13.186 8.345 7.902 23.236c-3.927 8.031-10.139 14.594-16.762 22.135L11.995 95.294c40.768-.595 64.803-.892 72.106-.892 20.48 0 37.787-17.655 37.079-37.3-.487-13.5-4.81-16.55-6.297-22.464-1.486-5.912 1.489-15.342 11.065-18.686z"
                          id="book-icon-yuque_c"></path>
                </g>
                <path d="M88.672 88.774c-21.52 24.09-55.339 62.418-55.339 62.418 60.842 15.828 88.875-22.588 93.264-35.887 5.885-17.83-2.43-26.531-7.136-29.369-15.957-9.62-27.796-.512-30.789 2.838z"
                      fill="#FFF" opacity=".66"></path>
                <path d="M90.121 88.528c4.038-3.78 15.263-10.77 29.982-1.932 4.718 2.833 13.055 11.52 7.155 29.322-1.712 5.164-7.008 14.12-16.43 22.208-9.748.065-31.581.343-65.5.833L87.301 91.68c.916-1.035 1.824-2.051 2.718-3.055z"
                      fill="#F0FAF6"></path>
            </g>
        </g>
    </g>
</svg>