<svg xmlns="http://www.w3.org/2000/svg" viewBox="0 0 64 64" id="books-icon-biaoqian">
    <path d="M50.063 8C51.133 8 52 8.944 52 10.11v43.768c-.006 1.164-.873 2.106-1.942 2.11a1.815 1.815 0 01-1.14-.398L34.462 44.21a4 4 0 00-4.948 0L15.06 55.583a1.796 1.796 0 01-2.017.192c-.636-.362-1.037-1.078-1.042-1.861V10.11C12 8.944 12.867 8 13.937 8h36.126zM41.15 30.196h-18.3a.85.85 0 00-.85.85v3.495c0 .47.38.85.85.85h18.3c.47 0 .85-.38.85-.85v-3.495a.85.85 0 00-.85-.85zm0-9.196h-18.3a.85.85 0 00-.85.85v3.496c0 .47.38.85.85.85h18.3c.47 0 .85-.38.85-.85V21.85a.85.85 0 00-.85-.85z"
          fill="currentColor"></path>
</svg>