<svg xmlns="http://www.w3.org/2000/svg" viewBox="0 0 64 64" id="books-icon-chanpinwendang">
    <g transform="translate(12 6)" fill="none" fill-rule="evenodd">
        <rect fill="currentColor" y="4" width="40" height="48" rx="1.875"></rect>
        <path d="M35.063 10c.517 0 .937.42.937.938v34.124c0 .518-.42.938-.938.938H4.939A.937.937 0 014 45.062V10.938c0-.518.42-.938.938-.938h30.125zm-6 24H10.938a.937.937 0 00-.938.938v2.124c0 .518.42.938.938.938h18.124c.518 0 .938-.42.938-.938v-2.124a.937.937 0 00-.938-.938zm0-8H10.938a.937.937 0 00-.938.938v2.125c0 .517.42.937.938.937h18.124c.518 0 .938-.42.938-.938v-2.125a.937.937 0 00-.938-.937zm0-8H10.938a.937.937 0 00-.938.938v2.125c0 .517.42.937.938.937h18.124c.518 0 .938-.42.938-.938v-2.125a.937.937 0 00-.938-.937z"
              fill="#FFF"></path>
        <path d="M19.5 0a5.625 5.625 0 015.625 5.625h5.71c.518 0 .938.42.938.938V9.75c0 1.036-.84 1.875-1.875 1.875H9.102A1.875 1.875 0 017.227 9.75V6.562c0-.517.42-.937.938-.937h5.71A5.625 5.625 0 0119.5 0z"
              fill="currentColor"></path>
    </g>
</svg>