<svg xmlns="http://www.w3.org/2000/svg" viewBox="0 0 24 24" id="book-icon-topic">
    <g fill="none" fill-rule="evenodd">
        <path d="M12 1.5c5.799 0 10.5 4.701 10.5 10.5S17.799 22.5 12 22.5c-2.229 0-4.296-.695-5.996-1.879l-2.4.642a.75.75 0 01-.92-.916l.643-2.427A10.451 10.451 0 011.5 12C1.5 6.201 6.201 1.5 12 1.5z"
              fill="#E65B29"></path>
        <path d="M16.11 14.906c.543 0 1.01.39 1.106.924l.02.107a.875.875 0 01-.861 1.032H7.594a1.031 1.031 0 010-2.063h8.515zm-.093-3.937a1.031 1.031 0 110 2.062H7.594a1.031 1.031 0 010-2.062h8.423zm0-3.938a1.031 1.031 0 110 2.063H7.594a1.031 1.031 0 110-2.063h8.423z"
              fill="#FFF"></path>
    </g>
</svg>