<svg xmlns="http://www.w3.org/2000/svg" viewBox="0 0 64 64" id="books-icon-chucun">
    <path d="M48.749 8c.495 0 1.162.25 1.58.577l.128.111 4.825 4.624c.363.347.66 1 .71 1.53l.008.155V56H8V8h40.749zM46 47H18a2 2 0 00-.15 3.995L18 51h28a2 2 0 100-4zm0-6H18a2 2 0 00-.15 3.995L18 45h28a2 2 0 100-4zm0-6H18a2 2 0 00-.15 3.995L18 39h28a2 2 0 100-4zm-.191-20H17.193c-.615 0-1.121.346-1.186.792l-.007.097V30.11c0 .459.466.836 1.063.884l.13.005h28.616c.613 0 1.12-.346 1.184-.792L47 30.11V15.89c0-.491-.534-.889-1.191-.889zm-2.677 2c.48 0 .868.298.868.666v10.668c0 .368-.388.666-.868.666H26.001A1.006 1.006 0 0125 27.998v-9.996c0-.553.448-1.002 1-1.002h17.132zM36.5 19c-.83 0-1.5.76-1.5 1.202v5.485c0 .442.67 1.313 1.5 1.313s1.5-.871 1.5-1.313v-5.485C38 19.76 37.33 19 36.5 19z"
          fill="currentColor"></path>
</svg>