<svg xmlns="http://www.w3.org/2000/svg" viewBox="0 0 24 24" id="book-type-thread">
    <g fill="none" fill-rule="evenodd">
        <path d="M12 1.5c5.799 0 10.5 4.701 10.5 10.5S17.799 22.5 12 22.5c-2.229 0-4.296-.695-5.996-1.879l-2.4.642a.75.75 0 01-.92-.916l.643-2.427A10.451 10.451 0 011.5 12C1.5 6.201 6.201 1.5 12 1.5z"
              fill="#4BA361"></path>
        <path d="M16.594 13.125a1.031 1.031 0 010 2.063H7.406a1.031 1.031 0 010-2.063h9.188zm0-4.313a1.031 1.031 0 010 2.063H7.406a1.031 1.031 0 010-2.063h9.188z"
              fill="#FFF"></path>
        <path d="M7.278 12.503c.04 0 .08.003.12.008l9.25 1.234c.56.074.977.551.977 1.115v.046a.903.903 0 01-1.022.895L7.35 14.568a1.125 1.125 0 01-.976-1.115v-.047c0-.498.404-.903.903-.903zm0-4.312c.04 0 .08.003.12.008l9.25 1.233c.56.075.977.552.977 1.115v.047a.903.903 0 01-1.022.895L7.35 10.255a1.125 1.125 0 01-.976-1.115v-.046c0-.499.404-.903.903-.903z"
              fill="#FFF" transform="rotate(90 12 12)"></path>
    </g>
</svg>