<svg xmlns="http://www.w3.org/2000/svg" viewBox="0 0 24 24"
     id="book-type-travel">
    <g fill="none" fill-rule="evenodd">
        <g>
            <g transform="translate(2.555 9.781)">
                <path fill="#A9C6F3"
                      d="M17.695 1c.622 0 1.125.504 1.125 1.125v8.344c0 .621-.503 1.125-1.125 1.125h-16.5A1.125 1.125 0 01.07 10.469V2.125C.07 1.504.574 1 1.195 1h1.43a7.198 7.198 0 001.718 2.732L8.94 8.397l.084.074a.75.75 0 00.977-.066l.01-.011 4.536-4.662h-.008l.21-.217A7.17 7.17 0 0016.265.999l1.43.001zm-3.041 0a5.685 5.685 0 01-1.173 1.682h.007l-3.482 3.581a.75.75 0 01-1.072.004L5.403 2.682A5.79 5.79 0 014.237 1z"
                      id="book-type-travel_c"></path>
                <ellipse fill="#4E86E6" opacity=".294" cx="18.961" cy="11.594"
                         rx="7.453" ry="7.406"></ellipse>
                <circle fill="#4E86E6" opacity=".294" cx="5.18" cy="11.594"
                        r="2.25"></circle>
                <path d="M-2.438 4.223H1.5c.207 0 .375.168.375.375v3.75h-4.313V4.223z" fill="#4E86E6" opacity=".294"
                      transform="rotate(45 -.281 6.285)"></path>
            </g>
        </g>
        <path d="M12.009 2.719c3.154.005 5.71 2.556 5.71 5.704a5.68 5.68 0 01-1.683 4.04h.007l-3.482 3.581a.75.75 0 01-1.072.004l-3.531-3.585a5.7 5.7 0 01-1.676-4.13c.049-3.109 2.61-5.62 5.727-5.614zM12 6.188a2.25 2.25 0 100 4.5 2.25 2.25 0 000-4.5z"
              fill="#4E86E6"></path>
    </g>
</svg>