<svg xmlns="http://www.w3.org/2000/svg" viewBox="0 0 24 24" id="book-type-sheet">
    <g fill="none" fill-rule="evenodd">
        <path d="M4.219 10.781H19.78a1.5 1.5 0 011.5 1.5v7.5a1.5 1.5 0 01-1.5 1.5H4.22a1.5 1.5 0 01-1.5-1.5v-7.5a1.5 1.5 0 011.5-1.5z"
              fill="#DBEDDF"></path>
        <path d="M6.75 7.781c.777 0 1.406.63 1.406 1.407v6.468a1.406 1.406 0 01-2.812 0V9.187c0-.776.63-1.406 1.406-1.406zM12 2.625c.777 0 1.406.63 1.406 1.406v11.625a1.406 1.406 0 01-2.812 0V4.031c0-.776.63-1.406 1.406-1.406zM17.25 7.781c.777 0 1.406.63 1.406 1.407v6.468a1.406 1.406 0 01-2.812 0V9.187c0-.776.63-1.406 1.406-1.406z"
              fill="#4BA361"></path>
    </g>
</svg>