<svg xmlns="http://www.w3.org/2000/svg" viewBox="0 0 64 64" id="books-icon-boke">
    <path d="M54.551 11.5c1.007 0 1.824.817 1.824 1.824V50.3a1.824 1.824 0 01-1.824 1.824H9.45A1.824 1.824 0 017.626 50.3V13.324c0-1.007.817-1.824 1.824-1.824h45.1zM38.46 38.759l-.317.122h-.085a.586.586 0 00-.335.109l-.08.061-.109.073-.146-.024a6.22 6.22 0 00-.146.206l-.025.038-.06.024.06-.012c-.276.073-.428.154-.457.244-.028.09-.075.15-.14.182a.622.622 0 00-.164.204l-.03.077-.147.158-.122.207a.638.638 0 00-.158.158l-.025.05-.268.5c0 .097-.007.185-.022.265l-.027.112-.11.22-.11.377.025.134-.122.415-.048.353.085.488.097.256.232.304.317.305.22.012a1.216 1.216 0 00.27.007l.046-.007h.134c.228 0 .43-.06.61-.183a.601.601 0 00.226-.089l.054-.045.195-.097.158-.159.17-.085.184-.11.122-.146a3.3 3.3 0 00.53-.388l.152-.148.341-.354.317-.219.22-.353.182-.159.074-.183.085-.024.012.06-.012.39.097.257v.341l.098.207v.597l.049.195a2.03 2.03 0 00-.068.7l.007.056-.098.305-.06.329-.074.146-.012.159-.134.17-.012.159-.183.28-.39.341h-.024c-.009 0-.025.008-.05.025a.118.118 0 01-.06.024c-.025 0-.04-.012-.049-.037-.036.074-.073.12-.11.137l-.036.01h-.073a.366.366 0 00-.061-.013.799.799 0 01-.122.098c-.244 0-.42.017-.528.05l-.057.023-.122.061-.012-.049a5.752 5.752 0 00-.144-.023l-.015-.001h-.024l-.085.024v-.085l-.28.06-.561-.17.097-.122v-.146l-.146-.097.024-.183a4.26 4.26 0 01-.469-.049l-.225-.036a.37.37 0 00-.195.06c-.065.007-.136.06-.21.16l-.058.084.036.195-.024.049a.77.77 0 00.445.596l.115.05.183.097.244.22.366.036.121.11.256-.049.293.061h.475c.065 0 .14-.007.222-.021l.132-.028v-.024l.11-.049.072.013c.153-.013.294-.045.423-.099l.126-.06.097-.024.147-.11.182-.085.232-.195.207-.159a2.96 2.96 0 00.305-.426.689.689 0 00.092-.157l.03-.087.06-.195a.327.327 0 00.055-.114l.007-.057.024-.073-.012-.06h.049l.036-.074.037-.036-.012-.074.012-.048.024-.05v-.048l.024-.231c.067-.636.103-1.022.11-1.16v-.06a.325.325 0 00.037-.146.513.513 0 00-.022-.147l-.027-.073.024-.036-.024-.147.097-.45-.11-.44-.072-.06a.663.663 0 00.06-.244.42.42 0 00-.027-.14l-.033-.08-.05-.23.086-.306-.11-.036a.578.578 0 00-.004-.259l-.02-.058-.073-.097.037-.22-.134-.195-.025-.073v-.085a.518.518 0 00-.06-.256 4.576 4.576 0 00-.067-.268l-.02-.061-.023-.268-.159-.122-.085-.159c-.122-.073-.22-.11-.293-.11a.534.534 0 00-.19.055l-.09.043-.122.22.037.121.024.17.098.135-.074.183.098.17.06.256c-.113.377-.214.623-.303.739l-.037.041-.025.159-.292.341a4.155 4.155 0 00-.26.313l-.008.016-.086-.049-.304.415-.122.11-.195.048a.215.215 0 01-.11.159 1.745 1.745 0 01-.22.097.3.3 0 00-.064.12l-.009.063-.036-.012a16.7 16.7 0 00-.549.298.512.512 0 00-.207.25c-.325.065-.524.126-.597.183-.03-.024-.088-.04-.174-.046l-.094-.003-.037-.073-.085-.024a.417.417 0 00-.038-.174l-.047-.082.012-.146-.037-.147.147-.463-.012-.134.097-.097.134-.524.146-.147.025-.243.183-.256.048-.171.134-.085.159-.256h.17l.013-.11.085-.012.097-.232a1.16 1.16 0 00.147-.085c.078-.007.15-.05.218-.129l.05-.066h.304l.013-.098.217-.105.039-.016h.121l.086.085.17.06.183.293.354-.048.158-.244-.024-.134.036-.195-.012-.061-.11-.17-.024-.05-.049-.024-.17-.17a.266.266 0 00-.137-.099l-.058-.011-.134-.073h-.22l-.183-.061zm-5.679.304l-.317.122-.134-.012a.437.437 0 00-.364-.016l-.087.04h-.158a.569.569 0 01-.156.316l-.064.05-.304.11-.013.28-.182.207h-.05l.013.05a.665.665 0 01-.055.048l-.027.021-.003.003-.256.354a.78.78 0 01-.038.238l-.047.115v.049l.036.17a.395.395 0 01-.066.096l-.044.05v.184l-.036.17.024.085h-.06c-.098.187-.151.321-.16.403-.08.073-.121.187-.121.34 0 .037.005.092.014.165l.01.08-.06.182.06.293-.085.158.183.415-.061.195.268.28.183.28.524.037.207.085.17-.049.16.013.158-.122.121-.037.122-.085c.106 0 .2-.024.28-.073.156 0 .287-.06.392-.178l.06-.078.048-.012a.664.664 0 00.324-.2l.066-.08.232-.086.012-.146.146-.073.098-.208.146-.085.049-.134.097-.036.086-.305.134-.134.036-.17.061-.086v-.134l.073-.122a2.15 2.15 0 00.035-.35l.002-.15.073-.22-.11-.426v-.122l-.231-.572-.256-.33-.086-.048-.024-.061a4.544 4.544 0 00-.283-.322l-.083-.08h-.097l-.183-.098h-.097l-.134-.085-.171-.159zM21.104 35.92l-.426.22v.024l-.195.036.195.415-.061.134.049.122a.491.491 0 00-.037.195.396.396 0 01.085.22.325.325 0 01-.036.145c.024.033.044.061.06.086a.176.176 0 00-.064.07l-.02.052.097.353-.024.085c.016.065.024.155.024.268a1.6 1.6 0 01-.005.147l-.007.048v.159l-.037.036.085.488-.11.39.05.122.012.17-.061.073v.269l.036.11-.11.34.062.074-.037.17-.012.72-.049.121v.427a.108.108 0 00-.012.049c0 .043.005.092.016.146l.02.085-.048.146.073.122v.22l.06.097-.036.085.256.549c.098.038.193.065.287.081l.14.016.085.256.195.073.061.061.17.086c.196.073.358.11.488.11.033 0 .06-.002.081-.006l.029-.007.158.146.256-.11.159.098.097-.122h.037l.097-.11.086.05a.37.37 0 01.09.125l.007.033.122-.159.122.11.097-.22a.457.457 0 00.242-.093l.075-.065.256-.146.159-.268.243-.232-.073-.11.098-.097v-.146l.28-.341-.037-.293.11-.11-.06-.219.048-.195-.049-.11.012-.524a.672.672 0 00.025-.134.378.378 0 00-.022-.108l-.027-.075-.037-.268a.565.565 0 00.065-.162l.02-.106-.146-.06a.325.325 0 00.037-.147.325.325 0 00-.073-.177.47.47 0 01-.065-.119l-.008-.045v-.037l-.049-.39-.085-.049-.073-.085v-.183l-.122-.097-.037-.256-.097-.012-.013-.122-.207-.293-.073-.012-.231-.134h-.378l-.207.159-.195.048.085.086-.098.036-.182.037.012.17-.025.073-.06.037-.159.049-.024.097a.237.237 0 00-.103.158l-.007.074-.073.097-.012.05-.086.084-.146.159-.049.146v-.024l-.036.036a.382.382 0 00-.073.098c-.073.097-.128.2-.165.306l-.03.108-.073.183-.05-.024-.085.256-.024.377-.158-.036.036-.39.012-.183.013-.134-.013-.049c.017-.06.027-.114.033-.162l.004-.07.024-.072-.036-.147.134-.256a1.776 1.776 0 00-.092-.113l-.042-.045.012-.037a.71.71 0 00.032-.146l.005-.073.06-.195-.036-.098.024-.097c0-.17-.012-.28-.036-.33a4.07 4.07 0 00.038-.162l.01-.057.074-.316.085-.159-.159-.073.013-.085-.086-.22.05-.195-.05-.048a.196.196 0 00.025-.086c0-.048-.029-.101-.086-.158.011-.076.018-.141.022-.195l.003-.073.012-.183-.183-.134-.024-.122-.22-.256zm5.997.695c.035 0-.075.03-.332.093l-.12.029-.072.73.036.123-.036.329.012.365.049.098-.037.524.012.512-.036.085v.427l-.013.11-.11.17.074.244-.073.183.024.207-.037.304-.11.183.11.22c0 .09-.02.304-.06.646 0 .038.005.074.016.108l.02.05-.024.073-.012.195.012.268.06.451.098.11.049.244a.307.307 0 01.126.18l.008.076v.036l.073.122.22.122c.056.032.178.049.365.049.22 0 .398-.04.536-.122a.27.27 0 00.086.012c.048 0 .101-.02.158-.06a.685.685 0 01.263-.202l.115-.043.049-.048.122-.013.17-.11.11-.048.11-.146.121-.086c.147-.105.252-.207.317-.304a.278.278 0 00.098-.22c0-.17-.023-.286-.067-.347-.045-.061-.148-.104-.311-.128-.04.04-.122.06-.244.06-.138.058-.207.143-.207.257-.114.097-.19.162-.232.195a.484.484 0 00-.23.121l-.05.062-.073.036a.31.31 0 01-.12.098l-.075.024h-.037a.267.267 0 00-.064.011l-.045.013-.11.013-.073.097-.158-.049h-.11a.68.68 0 00-.087-.146l-.047-.049.012-.06-.073-.159.024-.183-.06-.17a3.9 3.9 0 00.012-.342c0-.005.003-.02.01-.043l.014-.042.024-.341.061-.28-.036-.061.048-.537-.048-.231.085-.256v-.256l.073-.39-.024-.11a.562.562 0 00.048-.195.412.412 0 00-.01-.076l-.014-.058.049-.134-.11-.134.012-.073c.017-.09.025-.154.025-.195.027-.076.045-.157.054-.244l.007-.134.085-.256-.061-.231-.024-.256a.73.73 0 00.048-.2l.013-.105-.025-.049.098-.256-.183-.183-.024-.097c-.082-.138-.187-.207-.317-.207zm5.362 3.266a.081.081 0 00.054.043l.044.006.097.024.256.098.11.085.146.244.073.012c0 .13.037.211.11.244.006.036.04.082.1.137l.07.058.05.06-.025.232.11.232-.037.06a.281.281 0 00.049.125l.048.058.013.061-.05.05a.453.453 0 00-.072.23c0 .031.009.078.027.14l.021.068-.06.073-.05.085-.145.122v.159l-.061.134-.013.06-.195.098-.134.195-.243.17-.025.062a1.132 1.132 0 00-.359.214l-.043.054-.11.024-.024.037-.158.11-.098-.037-.11.036c-.005-.016-.02-.027-.043-.032l-.042-.004h-.049l-.048.122-.317-.025-.098.05-.06-.025-.171-.061-.11-.159-.012-.17.048-.17v-.342l-.024-.061.134-.33-.012-.145.037-.05v-.097c.04-.089.073-.17.097-.243a.358.358 0 00.103-.185l.007-.071-.061-.037.195-.183c0-.065.007-.133.021-.206l.028-.11.146-.074.049-.317.121-.06.037-.135.256-.134.158-.34.244-.269zm-8.811-.646l.268.427.158.353.11.402.085.56v.208l.024.22-.036.11.024.194-.036.317v.28l-.146.268v.122a1.31 1.31 0 00-.352.437l-.05.124h-.342l.049.146-.098.037h-.036a.256.256 0 00-.178.061l-.042.048-.195.037h-.292l-.049-.049v-.17l-.22-.098-.243.037-.158-.086-.269-.06.098-.098.024-.049.147-.06-.074-.22a1 1 0 00.103-.33l.007-.109v-.06l-.009-.031-.003-.019.085-.048.098-.427.195-.268-.012-.195.073-.11a.935.935 0 00.152-.366l.006-.085.122-.304.122-.147.049-.182.146-.134c.105-.155.19-.277.256-.366.122-.007.204-.062.247-.164l.02-.068h.062l.049-.06.06-.025zm7.785-13.515H14.282a.563.563 0 00-.556.471l-.007.092v2.936c0 .28.204.512.471.556l.092.007h17.155c.28 0 .512-.204.556-.471l.007-.092v-2.936a.563.563 0 00-.563-.563zm18.281-6.094H36.626a.563.563 0 00-.556.472l-.008.091v9.03c0 .28.205.512.472.556l.092.007h13.092c.28 0 .512-.204.556-.471l.007-.092v-9.03a.563.563 0 00-.563-.563zm-18.281 0H14.282a.563.563 0 00-.556.472l-.007.091v2.936c0 .28.204.512.471.556l.092.008h17.155c.28 0 .512-.205.556-.472l.007-.092v-2.936a.563.563 0 00-.563-.563z"
          fill="currentColor" fill-rule="evenodd"></path>
</svg>