<svg xmlns="http://www.w3.org/2000/svg" viewBox="0 0 24 24" id="book-type-notes">
    <g fill="none" fill-rule="evenodd">
        <g>
            <path d="M18.188 1.594a2.25 2.25 0 012.25 2.25v16.312a2.25 2.25 0 01-2.25 2.25H6a2.25 2.25 0 01-2.25-2.25V3.844A2.25 2.25 0 016 1.594h12.188zM8.137 12.582a.169.169 0 00-.169.17v1.781l.007.06c.025.118.124.21.249.222l.028.003a5.726 5.726 0 013.335 1.513.37.37 0 00.518-.018l.184-.183c.811-.77 1.84-1.21 3.085-1.322l.03-.003a.273.273 0 00.251-.272v-1.782l-.004-.036-.012-.033a.158.158 0 00-.21-.073l-.099.047-3.472 1.688-3.525-1.686-.123-.06a.17.17 0 00-.073-.016zm4.002-4.85a.75.75 0 00-.655 0l-5.159 2.506a.187.187 0 000 .337l5.159 2.506c.207.1.448.1.655 0l5.159-2.506a.187.187 0 000-.337z"
                  fill="#DE5F31"></path>
            <path d="M3.094 11.063h1.5a.938.938 0 010 1.874h-1.5a.937.937 0 110-1.874zM3.094 5.625h1.5a.938.938 0 010 1.875h-1.5a.938.938 0 010-1.875zM3.094 16.5h1.5a.937.937 0 110 1.875h-1.5a.937.937 0 110-1.875z"
                  fill="#DE5F31"></path>
        </g>
    </g>
</svg>