<svg xmlns="http://www.w3.org/2000/svg" viewBox="0 0 24 24" id="book-type-manual">
    <g fill="none" fill-rule="evenodd">
        <g>
            <path d="M21.89 6.75v2.412a.75.75 0 01-.454.69l-6.108 2.617V6h5.813a.75.75 0 01.75.75z"
                  fill="#2F5BA5"></path>
            <path d="M21.89 4.594v2.411a.75.75 0 01-.454.69l-6.108 2.618v-6.47h5.813a.75.75 0 01.75.75z"
                  fill="#A9C6F3"></path>
            <path d="M19.781 3.094v17.812a1.5 1.5 0 01-1.5 1.5H5.344a1.5 1.5 0 01-1.5-1.5V3.094a1.5 1.5 0 011.5-1.5H18.28a1.5 1.5 0 011.5 1.5z"
                  fill="#4E86E6"></path>
            <path d="M15.844 15.938a.937.937 0 110 1.874H7.78a.937.937 0 110-1.875h8.063zm0-4.876a.937.937 0 110 1.876H7.78a.937.937 0 110-1.876h8.063zm0-4.874a.937.937 0 110 1.875H7.78a.938.938 0 010-1.876h8.063z"
                  fill="#FFF"></path>
        </g>
    </g>
</svg>