<svg xmlns="http://www.w3.org/2000/svg" viewBox="0 0 64 64" id="books-icon-dengpao">
    <g fill="none">
        <path d="M31.706 8c8.673 0 15.706 6.674 15.706 14.905 0 3.309-1.136 7.035-3.052 10.311-1.235 2.104-3.912 4.41-5.16 6.785l.065-.001C40.77 40 42 41.281 42 42.85v.3c0 1.57-1.23 2.85-2.735 2.85h-.729l.001.294A2.787 2.787 0 0140 48.763v.47C40 50.755 38.812 52 37.354 52H36l.001.97c0 1.664-1.174 3.03-2.603 3.03h-2.794C29.17 56 28 54.634 28 52.97l-.001-.97h-1.353C25.192 52 24 50.755 24 49.237v-.474c0-.812.34-1.546.88-2.053V46h-.145C23.23 46 22 44.719 22 43.15v-.3c0-1.392.97-2.559 2.24-2.803-1.237-2.391-3.944-4.713-5.183-6.83C17.136 29.94 16 26.213 16 22.904 16 14.675 23.033 8 31.706 8z"
              fill="currentColor"></path>
        <path d="M27.282 25.653c-.882 0-1.598.702-1.598 1.569 0 .866.716 1.568 1.598 1.568h1.598v-1.568a1.58 1.58 0 00-1.453-1.563l-.145-.006zm9.436 0c-.883 0-1.598.702-1.598 1.569l-.001 1.568h1.599c.882 0 1.598-.702 1.598-1.568a1.58 1.58 0 00-1.453-1.563l-.145-.006zm-6.154 1.569v1.568h2.871v-1.568c0-1.775 1.47-3.222 3.283-3.222C38.526 24 40 25.447 40 27.222c0 1.774-1.474 3.221-3.282 3.221h-1.599V40h-1.683l-.001-9.557h-2.871V40H28.88v-9.557h-1.598c-1.808 0-3.282-1.447-3.282-3.221C24 25.447 25.47 24 27.282 24c1.808 0 3.282 1.447 3.282 3.222z"
              fill="#FFF"></path>
        <path d="M39.209 48H24.791c-.436 0-.791-.449-.791-1 0-.551.355-1 .791-1h14.418c.436 0 .791.449.791 1 0 .551-.355 1-.791 1zm-1.802 5H26.593c-.327 0-.593-.449-.593-1 0-.551.266-1 .593-1h10.814c.327 0 .593.449.593 1 0 .551-.266 1-.593 1z"
              fill="currentColor"></path>
    </g>
</svg>