<svg xmlns="http://www.w3.org/2000/svg" viewBox="0 0 256 256" id="book-icon-alipay">
    <g fill="none" fill-rule="evenodd">
        <g>
            <g transform="translate(28 28.058)">
                <path d="M121.127 131.505c-17.56 21.425-40.19 34.408-63.659 34.372-39.696-.066-53.12-34.644-34.287-57.367 4.106-4.952 11.084-9.676 21.91-12.313 16.93-4.108 43.858 2.653 69.087 10.98 4.552-8.315 8.388-17.472 11.252-27.224l-77.801-.125.012-7.842 40.116.062.022-14.053-48.587-.077.014-7.843 48.586.077.033-20.05s.004-3.377 3.445-3.372l19.607.033-.04 23.427 48.04.078-.012 7.843-48.04-.076-.02 14.051 39.212.063c-3.776 15.286-9.503 29.352-16.671 41.7 11.892 4.3 22.569 8.375 30.524 11.039 26.265 8.799 34.023 9.977 35.131 10.111v-.074l.165-102.552C199.196 14.855 184.965.64 167.36.611L32.138.393C14.53.365.246 14.535.218 32.053L0 166.57c-.028 17.507 14.21 31.727 31.819 31.755l135.22.218c17.606.028 31.882-14.146 31.911-31.652l.002-1.298c-1.882-.784-52.202-21.78-77.825-34.088"
                      fill="#1677FF"></path>
            </g>
            <path d="M76.453 135.998c-4.971.484-14.305 2.658-19.416 7.134-15.319 13.245-6.206 37.515 24.746 37.565 17.99.03 35.988-11.386 50.137-29.683-20.072-9.788-37.078-16.793-55.467-15.016"
                  fill="#1677FF"></path>
        </g>
    </g>
</svg>