<svg xmlns="http://www.w3.org/2000/svg" viewBox="0 0 24 24" id="doc-type-sheet">
    <g fill="none" fill-rule="evenodd">
        <path d="M0 0h24v24H0z"></path>
        <path d="M18.375 2.625a3 3 0 013 3v12.75a3 3 0 01-3 3H5.625a3 3 0 01-3-3V5.625a3 3 0 013-3h12.75zm-2.156 2.719H7.687l-.16.005A2.438 2.438 0 005.25 7.78v8.438l.005.16a2.438 2.438 0 002.433 2.277h8.53l.161-.005a2.438 2.438 0 002.277-2.432V7.78l-.005-.16a2.438 2.438 0 00-2.432-2.277zM9.375 14.53v2.25H7.687l-.09-.007a.563.563 0 01-.472-.555V14.53h2.25zm7.406 0v1.688l-.007.091a.563.563 0 01-.555.471h-5.907v-2.25h6.469zm-7.406-3.656v2.344h-2.25v-2.344h2.25zm7.406 0v2.344h-6.469v-2.344h6.469zM9.375 7.219v2.343h-2.25v-1.78l.007-.092a.563.563 0 01.556-.471h1.687zm6.844 0l.091.007a.563.563 0 01.471.555v1.78h-6.469V7.22h5.907z"
              fill="#009D5C"></path>
    </g>
</svg>