<svg xmlns="http://www.w3.org/2000/svg" viewBox="0 0 24 24" id="doc-type-show">
    <g fill="none" fill-rule="evenodd">
        <path d="M18.375 2.625a3 3 0 013 3v12.75a3 3 0 01-3 3H5.625a3 3 0 01-3-3V5.625a3 3 0 013-3h12.75zM12 5.438a.844.844 0 00-.844.843v.657H5.719a.844.844 0 100 1.687h.562v5.25l.007.145a1.594 1.594 0 001.587 1.449h1.724l-.796 1.634a.844.844 0 101.517.74l1.157-2.374h1.045l1.158 2.374.053.092c.229.351.69.485 1.076.297l.092-.053a.844.844 0 00.296-1.076l-.797-1.635h1.725l.145-.006a1.594 1.594 0 001.449-1.587l-.001-5.25h.563a.844.844 0 100-1.688h-5.438v-.656A.844.844 0 0012 5.438zm4.031 3.186v5.156H7.968V8.625h8.063z"
              fill="#DE5F31"></path>
    </g>
</svg>