<svg xmlns="http://www.w3.org/2000/svg" viewBox="0 0 24 24" id="doc-type-mind">
    <g fill="none" fill-rule="evenodd">
        <path d="M18.375 2.625a3 3 0 013 3v12.75a3 3 0 01-3 3H5.625a3 3 0 01-3-3V5.625a3 3 0 013-3h12.75zm-.656 4.219h-3.75a.75.75 0 00-.75.75v.28l-1.662.002a4.127 4.127 0 00-3.776 2.623l-1.687.001a.75.75 0 00-.75.75v1.5c0 .414.336.75.75.75h1.688a4.126 4.126 0 003.843 2.625h1.594v.281c0 .414.336.75.75.75h3.75a.75.75 0 00.75-.75v-1.5a.75.75 0 00-.75-.75h-3.75a.75.75 0 00-.75.75v.28l-1.647.001a3.187 3.187 0 01-2.76-1.686l1.032-.001a.75.75 0 00.75-.75v-1.5a.75.75 0 00-.75-.75H8.812a3.187 3.187 0 012.813-1.688h1.594v.282c0 .414.336.75.75.75h3.75a.75.75 0 00.75-.75v-1.5a.75.75 0 00-.75-.75z"
              fill="#8B6AD4"></path>
    </g>
</svg>