<svg xmlns="http://www.w3.org/2000/svg" viewBox="0 0 24 24" id="group-type-official_doc">
    <g fill="none" fill-rule="evenodd">
        <path d="M8.159 14.158l1.502 1.575-.744 5.588H3.47a.75.75 0 01-.75-.75v-3.294a.75.75 0 01.421-.674l5-2.439a.08.08 0 01.019-.006zm7.666-.002a.08.08 0 01.035.008l5 2.439a.75.75 0 01.421.674v3.294a.75.75 0 01-.75.75h-5.53l-.674-5.575 1.515-1.588-.017-.002z"
              fill="#4E86E6" fill-rule="nonzero"></path>
        <path d="M12.263 14.792l.496.492c.061.06.1.14.109.225l.634 5.812h-3.087l.709-5.814a.375.375 0 01.11-.222l.502-.494a.375.375 0 01.527 0z"
              fill="#4BA361"></path>
        <rect fill="#F8CA3E" x="7.313" y="2.719" width="9.281" height="11.25"
              rx="4.641"></rect>
    </g>
</svg>