<svg xmlns="http://www.w3.org/2000/svg" viewBox="0 0 24 24" id="group-type-default">
    <g fill="none" fill-rule="evenodd">
        <path d="M12 3.844a4.125 4.125 0 012.071 7.693 7.595 7.595 0 015.523 7.307c0 1.402-5.532 1.59-7.594 1.594h-.15c-2.166-.007-7.444-.223-7.444-1.594a7.597 7.597 0 015.523-7.308A4.125 4.125 0 0112 3.844z"
              fill="#4E86E6"></path>
        <path d="M7.464 4.983a4.087 4.087 0 00-1.277 2.986c0 1.503.795 2.815 1.973 3.506-3.01.777-5.266 3.48-5.432 6.747-.771-.166-1.228-.445-1.228-.914a6.266 6.266 0 014.532-6.032 3.393 3.393 0 01-1.64-2.91A3.395 3.395 0 017.41 4.99z"
              fill="#A9C6F3"></path>
        <path d="M21.804 4.983a4.087 4.087 0 00-1.277 2.986c0 1.503.795 2.815 1.973 3.506-3.01.777-5.267 3.48-5.432 6.747-.772-.166-1.228-.445-1.228-.914a6.266 6.266 0 014.531-6.032 3.393 3.393 0 01-1.64-2.91 3.395 3.395 0 013.02-3.377z"
              fill="#A9C6F3" transform="matrix(-1 0 0 1 38.34 0)"></path>
    </g>
</svg>