<svg xmlns="http://www.w3.org/2000/svg" viewBox="0 0 24 24" id="group-type-interest">
    <g fill="none" fill-rule="evenodd">
        <path fill-opacity=".01" fill="#FFF" fill-rule="nonzero" d="M0 0h24v24H0z"></path>
        <path d="M8.912 9.767a3.09 3.09 0 012.531 1.31l-.002 11.295-.077-.104c-.52-.665-1.08-.998-1.68-.998H4.939c-.467 0-1.032-.564-1.032-1.031a.982.982 0 01.982-.983h.971c.38 0 .693-.284.739-.651l.006-.093V14.79a.744.744 0 00-.651-.739l-.094-.005h-.829a1.125 1.125 0 01-1.125-1.126l.001-2.123c0-.466.565-1.03 1.032-1.03h3.973zm10.149 0c.436 0 .957.492 1.025.937l.007.094v2.123c-.001.62-.505 1.124-1.126 1.125h-.734a.744.744 0 00-.739.651l-.006.094v3.72c0 .38.284.693.651.739l.094.006h.876c.543 0 .984.44.984.983 0 .435-.492.956-.938 1.024l-.094.007h-4.745c-.63 0-1.215.366-1.757 1.1l-.001-11.294a3.09 3.09 0 012.36-1.304l.17-.005h3.973z"
              fill="#4E86E6" fill-rule="nonzero"></path>
        <circle fill="#F7AD2D" cx="12" cy="5.302" r="3.721"></circle>
        <rect fill="#F7AD2D" x="2.512" y="15.163" width="2.977" height="2.977" rx=".744"></rect>
        <rect fill="#F7AD2D" x="18.605" y="15.163" width="2.977" height="2.977" rx=".744"></rect>
    </g>
</svg>