<svg xmlns="http://www.w3.org/2000/svg" viewBox="0 0 24 24" id="group-type-department">
    <g fill="none" fill-rule="evenodd">
        <path d="M12 20.156c1.298-.002 4.781-.244 4.781-1.113 0-2.598-2.14-4.704-4.781-4.704-2.64 0-4.781 2.106-4.781 4.704 0 .87 3.483 1.115 4.781 1.113z"
              fill="#4E86E6" fill-rule="nonzero"></path>
        <circle fill="#F4EDD5" cx="9.42" cy="5.344" r="1.5"></circle>
        <circle fill="#F4EDD5" cx="14.576" cy="5.344" r="1.5"></circle>
        <path d="M5.063 14.156c.89-.001 3.28-.164 3.28-.752 0-1.755-1.468-3.179-3.28-3.179-1.813 0-3.282 1.424-3.282 3.18 0 .587 2.39.753 3.282.751zM19.125 14.156c.891-.001 3.281-.164 3.281-.752 0-1.755-1.469-3.179-3.281-3.179s-3.281 1.424-3.281 3.18c0 .587 2.39.753 3.281.751z"
              fill="#A9C6F3"></path>
        <ellipse fill="#F7AD2D" cx="12.003" cy="12.281" rx="2.572" ry="2.531"></ellipse>
        <ellipse fill="#F5D8A0" cx="19.122" cy="8.883" rx="1.78" ry="1.758"></ellipse>
        <ellipse fill="#F5D8A0" cx="5.06" cy="8.883" rx="1.78" ry="1.758"></ellipse>
    </g>
</svg>