<svg xmlns="http://www.w3.org/2000/svg" viewBox="0 0 24 24" id="group-type-project">
    <g fill="none" fill-rule="evenodd">
        <path d="M12 11.625c1.907 0 3.474 1.442 3.641 3.282.003.03.006.069.008.114a.36.36 0 01-.273.367l-.157.034c-1.323.247-5.263.243-6.5-.012a1.097 1.097 0 01-.104-.027.375.375 0 01-.263-.378l.003-.053.004-.045c.167-1.84 1.734-3.282 3.641-3.282zM5.149 7.687c1.907 0 3.473 1.442 3.641 3.282l.008.114a.36.36 0 01-.273.368l-.158.033c-1.322.248-5.262.244-6.499-.012a1.097 1.097 0 01-.105-.027.375.375 0 01-.262-.378l.003-.053.003-.045c.168-1.84 1.734-3.281 3.642-3.281zM8.798 19.614a2.839 2.839 0 00-.008-.114c-.168-1.84-1.734-3.281-3.641-3.281-1.908 0-3.474 1.442-3.642 3.282l-.006.098c-.01.17.099.326.262.378.033.01.068.019.105.026 1.29.267 5.525.26 6.657-.021a.36.36 0 00.273-.368zM22.485 11.083a2.839 2.839 0 00-.007-.114c-.168-1.84-1.734-3.281-3.642-3.281-1.907 0-3.474 1.441-3.641 3.281l-.007.098c-.01.172.1.327.263.378.033.01.068.02.105.027 1.29.267 5.524.26 6.656-.021a.36.36 0 00.273-.368zM22.485 19.614a2.839 2.839 0 00-.007-.114c-.168-1.84-1.734-3.281-3.642-3.281-1.907 0-3.474 1.442-3.641 3.282-.003.027-.005.06-.007.098-.01.17.1.326.263.378.033.01.068.019.105.026 1.29.267 5.524.26 6.656-.021a.36.36 0 00.273-.368z"
              fill="#4BA361"></path>
        <path d="M5.196 12.375a2.156 2.156 0 110 4.312 2.156 2.156 0 010-4.312zm13.687 0a2.156 2.156 0 110 4.312 2.156 2.156 0 010-4.312zM5.196 3.844a2.156 2.156 0 110 4.312 2.156 2.156 0 010-4.312zm13.687 0a2.156 2.156 0 110 4.312 2.156 2.156 0 010-4.312z"
              fill="#F5D8A0"></path>
        <circle fill="#F7AD2D" cx="12.047" cy="9.938" r="2.156"></circle>
    </g>
</svg>